<svg width="23" height="18" viewBox="0 0 23 18" fill="none" xmlns="http://www.w3.org/2000/svg">
<g clip-path="url(#clip0_53_975)">
<path d="M5.22841 17.4162V8.70394L2.47296 6.23207L0.0020752 4.86035V15.8787C0.0020752 16.7294 0.704974 17.4162 1.57001 17.4162H5.22841Z" fill="#4285F4"/>
<path d="M17.7716 17.4161H21.43C22.2976 17.4161 22.9979 16.7268 22.9979 15.8786V4.86035L20.1993 6.43149L17.7716 8.70385V17.4161Z" fill="#34A853"/>
<path d="M5.22846 8.70423L4.85352 5.30009L5.22846 2.04199L11.5 6.65436L17.7716 2.04199L18.191 5.12419L17.7716 8.70423L11.5 13.3166L5.22846 8.70423Z" fill="#EA4335"/>
<path d="M17.7716 2.04178V8.70401L22.9979 4.86043V2.81048C22.9979 0.909206 20.7846 -0.174654 19.2351 0.965579L17.7716 2.04178Z" fill="#FBBC04"/>
<path d="M0.00244141 4.86047L2.40613 6.62829L5.22878 8.70405V2.04182L3.76531 0.965619C2.21309 -0.174702 0.00244141 0.909246 0.00244141 2.81043V4.86038V4.86047Z" fill="#C5221F"/>
</g>
<defs>
<clipPath id="clip0_53_975">
<rect width="23" height="17" fill="white" transform="translate(0 0.5)"/>
</clipPath>
</defs>
</svg>
