<svg width="18" height="18" viewBox="0 0 18 18" fill="none" xmlns="http://www.w3.org/2000/svg">
<path d="M6.61732 0.985149C6.14059 1.01013 5.6933 1.22348 5.37387 1.57825C5.05443 1.93302 4.88901 2.40015 4.91399 2.87689L5.07106 5.87397L2.07518 6.03098C1.59844 6.05597 1.15116 6.26931 0.83172 6.62408C0.512284 6.97885 0.346863 7.44599 0.371847 7.92272L0.560257 11.5178C0.585242 11.9945 0.798585 12.4418 1.15335 12.7612C1.50812 13.0807 1.97526 13.2461 2.45199 13.2211L5.44788 13.0641L5.60489 16.06C5.62988 16.5367 5.84322 16.984 6.19799 17.3035C6.55276 17.6229 7.01989 17.7883 7.49663 17.7633L11.0917 17.5749C11.5684 17.5499 12.0157 17.3366 12.3352 16.9818C12.6546 16.6271 12.82 16.1599 12.795 15.6832L12.638 12.6873L15.6339 12.5303C16.1106 12.5053 16.5579 12.292 16.8774 11.9372C17.1968 11.5824 17.3622 11.1153 17.3372 10.6385L17.1488 7.04348C17.1238 6.56674 16.9105 6.11946 16.5557 5.80002C16.201 5.48058 15.7338 5.31516 15.2571 5.34015L12.2612 5.49716L12.1041 2.50007C12.0791 2.02333 11.8658 1.57605 11.511 1.25661C11.1563 0.937176 10.6891 0.771755 10.2124 0.79674L6.61732 0.985149Z" fill="white"/>
</svg>
