<svg xmlns="http://www.w3.org/2000/svg" aria-hidden="true" style="position:absolute;width:0;height:0;overflow:hidden">
  <defs>
    <symbol id="four-callendar" viewBox="0 0 32 32">
      <path fill="#0e0e0e" d="M28.571 5.715v5.714H3.428V5.715a1.14 1.14 0 0 1 1.143-1.143h22.857a1.14 1.14 0 0 1 1.143 1.143z" opacity=".2" style="fill:var(--color1, #0e0e0e)"/>
      <path fill="#0e0e0e" d="M27.429 3.429H24V2.286a1.14 1.14 0 0 0-1.143-1.143 1.14 1.14 0 0 0-1.143 1.143v1.143H10.285V2.286a1.14 1.14 0 0 0-1.143-1.143 1.14 1.14 0 0 0-1.143 1.143v1.143H4.57a2.287 2.287 0 0 0-2.285 2.285v22.857a2.287 2.287 0 0 0 2.285 2.285h22.857a2.287 2.287 0 0 0 2.285-2.285V5.714a2.287 2.287 0 0 0-2.285-2.285zM8 5.714v1.143A1.14 1.14 0 0 0 9.143 8a1.14 1.14 0 0 0 1.143-1.143V5.714h11.429v1.143A1.14 1.14 0 0 0 22.858 8a1.14 1.14 0 0 0 1.143-1.143V5.714h3.429v4.571H4.573V5.714h3.429zm19.429 22.857H4.572v-16h22.857v16zM13.714 16v9.143a1.14 1.14 0 0 1-1.143 1.143 1.14 1.14 0 0 1-1.143-1.143v-7.294l-.631.317a1.141 1.141 0 0 1-1.534-.511 1.141 1.141 0 0 1 .511-1.534l2.286-1.143c.174-.087.368-.128.563-.12s.384.067.55.17a1.142 1.142 0 0 1 .541.973zm8.452 4.35L19.429 24h2.286a1.14 1.14 0 0 1 1.143 1.143 1.14 1.14 0 0 1-1.143 1.143h-4.571a1.142 1.142 0 0 1-.914-1.829l4.111-5.481a1.148 1.148 0 0 0 .212-.88 1.136 1.136 0 0 0-.495-.758 1.136 1.136 0 0 0-.891-.16 1.134 1.134 0 0 0-.729.538c-.073.134-.172.252-.291.348s-.256.166-.403.207a1.15 1.15 0 0 1-.882-.11 1.136 1.136 0 0 1-.536-.709 1.134 1.134 0 0 1 .134-.879 3.429 3.429 0 1 1 5.706 3.778z" style="fill:var(--color1, #0e0e0e)"/>
    </symbol>
    <symbol id="four-clock" viewBox="0 0 32 32">
      <path d="M16 1.143a14.853 14.853 0 0 0-13.726 9.172 14.861 14.861 0 0 0 10.828 20.257 14.855 14.855 0 0 0 15.252-6.318A14.853 14.853 0 0 0 30.858 16 14.873 14.873 0 0 0 16.001 1.143zm0 27.428A12.566 12.566 0 0 1 4.386 20.81a12.567 12.567 0 0 1 2.726-13.7 12.579 12.579 0 0 1 13.7-2.726 12.566 12.566 0 0 1 7.761 11.614 12.585 12.585 0 0 1-12.571 12.571zM25.143 16A1.14 1.14 0 0 1 24 17.143h-8A1.14 1.14 0 0 1 14.857 16V8A1.14 1.14 0 0 1 16 6.857 1.14 1.14 0 0 1 17.143 8v6.857H24A1.14 1.14 0 0 1 25.143 16z"/>
    </symbol>
    <symbol id="four-number-five" viewBox="0 0 32 32">
      <path fill="#697b61" d="M16 3.661a12.33 12.33 0 0 0-11.399 7.616A12.34 12.34 0 1 0 28.339 16 12.35 12.35 0 0 0 16 3.661zm0 23.226a10.893 10.893 0 0 1-10.059-6.721 10.887 10.887 0 1 1 20.945-4.165 10.9 10.9 0 0 1-10.887 10.887z" style="fill:var(--color2, #697b61)"/>
      <path fill="#697b61" d="M15.449 22.342c-.57 0-1.109-.068-1.617-.204s-.966-.334-1.375-.595c-.396-.26-.737-.576-1.022-.948s-.495-.793-.632-1.263l1.412-.409c.136.334.31.626.52.873s.452.452.725.613c.285.161.601.285.948.372.347.074.712.111 1.096.111.557 0 1.041-.068 1.449-.204.409-.149.749-.353 1.022-.613s.477-.57.613-.929c.136-.372.204-.78.204-1.226s-.068-.836-.204-1.171c-.124-.347-.31-.638-.557-.873s-.551-.415-.91-.539a3.746 3.746 0 0 0-1.226-.186c-.632 0-1.22.118-1.765.353a4.355 4.355 0 0 0-1.412.948l-1.394-.372.706-6.893h7.469v1.412h-6.187l-.446 4.181a5.378 5.378 0 0 1 1.468-.762 5.1 5.1 0 0 1 1.728-.279c.657 0 1.245.099 1.765.297.533.186.985.458 1.356.818.372.347.657.774.855 1.282.211.495.316 1.059.316 1.691 0 .669-.118 1.282-.353 1.839a4.056 4.056 0 0 1-.985 1.431 4.466 4.466 0 0 1-1.542.929c-.607.211-1.282.316-2.025.316z" style="fill:var(--color2, #697b61)"/>
    </symbol>
    <symbol id="four-number-four" viewBox="0 0 32 32">
      <path fill="#697b61" d="M16 3.25a12.752 12.752 0 0 0-9.017 21.766 12.75 12.75 0 0 0 21.766-9.017 12.762 12.762 0 0 0-12.75-12.75zm0 24a11.25 11.25 0 1 1 11.25-11.251A11.26 11.26 0 0 1 16 27.249z" style="fill:var(--color2, #697b61)"/>
      <path fill="#697b61" d="M17.119 22.4v-2.803h-6.931v-1.459l6.01-9.178h2.458v9.178h1.901v1.459h-1.901V22.4H17.12zm-5.164-4.262h5.165v-7.795h-.154l-5.011 7.642v.154z" style="fill:var(--color2, #697b61)"/>
    </symbol>
    <symbol id="four-number-one" viewBox="0 0 32 32">
      <path fill="#697b61" d="M16 3.25a12.752 12.752 0 0 0-9.017 21.766 12.75 12.75 0 0 0 21.766-9.017 12.762 12.762 0 0 0-12.75-12.75zm0 24a11.25 11.25 0 1 1 11.25-11.251A11.26 11.26 0 0 1 16 27.249z" style="fill:var(--color2, #697b61)"/>
      <path fill="#697b61" d="M15.719 9.76h1.536V23.2h-1.536V12.966a4.745 4.745 0 0 1-.73.595 4.552 4.552 0 0 1-.826.422 4.954 4.954 0 0 1-.902.269 4.504 4.504 0 0 1-.922.096v-1.402c.474-.026.915-.122 1.325-.288s.768-.39 1.075-.672c.307-.294.544-.627.71-.998.179-.384.269-.794.269-1.229z" style="fill:var(--color2, #697b61)"/>
    </symbol>
    <symbol id="four-number-three" viewBox="0 0 32 32">
      <path fill="#697b61" d="M16 3.25a12.752 12.752 0 0 0-9.017 21.766 12.75 12.75 0 0 0 21.766-9.017 12.762 12.762 0 0 0-12.75-12.75zm0 24a11.25 11.25 0 1 1 11.25-11.251A11.26 11.26 0 0 1 16 27.249z" style="fill:var(--color2, #697b61)"/>
      <path fill="#697b61" d="M16.094 22.554c-.602 0-1.171-.07-1.709-.211-.525-.141-.998-.346-1.421-.614s-.781-.595-1.075-.979a3.92 3.92 0 0 1-.653-1.306l1.459-.422c.269.704.685 1.222 1.248 1.555.563.32 1.299.48 2.208.48.512 0 .973-.077 1.382-.23s.755-.365 1.037-.634c.294-.282.518-.614.672-.998s.23-.813.23-1.286c0-.883-.262-1.555-.787-2.016-.512-.474-1.261-.71-2.246-.71-.333 0-.659.032-.979.096s-.627.186-.922.365l-.634-1.171 4.397-4.051h-6.413V8.963h8.525v1.402l-3.955 3.494c.077-.013.154-.019.23-.019h.25c.563 0 1.094.096 1.594.288.512.192.954.467 1.325.826.384.346.685.768.902 1.267.23.499.346 1.062.346 1.69 0 .691-.115 1.325-.346 1.901-.23.563-.563 1.05-.998 1.459s-.966.73-1.594.96c-.614.218-1.306.326-2.074.326z" style="fill:var(--color2, #697b61)"/>
    </symbol>
    <symbol id="four-number-two" viewBox="0 0 32 32">
      <path fill="#697b61" d="M16 3.25a12.752 12.752 0 0 0-9.017 21.766 12.75 12.75 0 0 0 21.766-9.017 12.762 12.762 0 0 0-12.75-12.75zm0 24a11.25 11.25 0 1 1 11.25-11.251A11.26 11.26 0 0 1 16 27.249z" style="fill:var(--color2, #697b61)"/>
      <path fill="#697b61" d="M11.665 22.4v-1.517c.653-.435 1.363-.922 2.131-1.459a26.822 26.822 0 0 0 2.246-1.728c.41-.358.794-.73 1.152-1.114.371-.397.691-.794.96-1.19.269-.41.48-.819.634-1.229.166-.422.25-.845.25-1.267 0-.397-.064-.755-.192-1.075s-.314-.595-.557-.826c-.243-.23-.531-.41-.864-.538s-.704-.192-1.114-.192c-.41 0-.794.07-1.152.211-.358.128-.685.32-.979.576a3.516 3.516 0 0 0-.73.96 4.612 4.612 0 0 0-.461 1.306l-1.402-.442c.102-.653.294-1.235.576-1.747s.627-.941 1.037-1.286a4.478 4.478 0 0 1 1.44-.787c.55-.192 1.139-.288 1.766-.288s1.197.096 1.709.288c.525.192.973.467 1.344.826.384.346.678.762.883 1.248s.307 1.024.307 1.613c0 .538-.102 1.075-.307 1.613a7.232 7.232 0 0 1-.806 1.555 13.71 13.71 0 0 1-1.19 1.478 20.38 20.38 0 0 1-1.421 1.363l-.73.614c-.244.204-.486.397-.73.576-.243.179-.486.352-.73.518s-.48.326-.71.48h7.027v1.459h-9.389z" style="fill:var(--color2, #697b61)"/>
    </symbol>
    <symbol id="header-btn-arrow" viewBox="0 0 32 32">
      <path fill="none" stroke="#fff" stroke-linecap="round" stroke-linejoin="round" stroke-width="3.2" d="M8 25.333 25.333 8m0 0v16.64m0-16.64H8.693" style="stroke:var(--color3, #fff)"/>
    </symbol>
    <symbol id="header-doctor-btn-arrow" viewBox="0 0 32 32">
      <path stroke='#1f1f1f' stroke-linecap="round" stroke-linejoin="round" stroke-width="3" d="M8.5 24.75 24.75 8.5m0 0v15.6m0-15.6H9.15"/>
    </symbol>
    <symbol id="header-move-string-plus" viewBox="0 0 32 32">
      <path fill="#fff" d="M11.764 1.751a3.201 3.201 0 0 0-3.029 3.363l.279 5.328-5.326.279a3.201 3.201 0 0 0-3.029 3.363l.335 6.391a3.199 3.199 0 0 0 3.363 3.028l5.326-.279.279 5.326a3.196 3.196 0 0 0 3.363 3.028l6.391-.335a3.196 3.196 0 0 0 3.028-3.363l-.279-5.326 5.326-.279a3.196 3.196 0 0 0 3.028-3.363l-.335-6.391a3.201 3.201 0 0 0-3.363-3.029l-5.326.279-.279-5.328a3.201 3.201 0 0 0-3.363-3.029l-6.391.335z" style="fill:var(--color3, #fff)"/>
    </symbol>
    <symbol id="question-plus" viewBox="0 0 32 32">
      <path d="M31.158 18.165H18.166v12.992h-4.331V18.165H.843v-4.331h12.992V.842h4.331v12.992h12.992v4.331z"/>
    </symbol>
    <symbol id="reviews-left-btn" viewBox="0 0 32 32">
      <path fill="#fff" d="M0 16C0 7.163 7.163 0 16 0s16 7.163 16 16-7.163 16-16 16S0 24.837 0 16z" style="fill:var(--color3, #fff)"/>
      <path fill="#0e0e0e" d="m11.006 16.736 7.431 7.08a.668.668 0 0 0 .92 0l.008-.008a.613.613 0 0 0 0-.89l-6.997-6.667 6.997-6.664a.613.613 0 0 0 0-.89l-.008-.008a.668.668 0 0 0-.92 0l-7.431 7.08a.675.675 0 0 0-.207.483.662.662 0 0 0 .207.483z" style="fill:var(--color1, #0e0e0e)"/>
    </symbol>
    <symbol id="reviews-right-btn" viewBox="0 0 32 32">
      <path fill="#fff" d="M32 16c0 8.837-7.163 16-16 16S0 24.837 0 16 7.163 0 16 0s16 7.163 16 16z" style="fill:var(--color3, #fff)"/>
      <path fill="#0e0e0e" d="m20.994 15.264-7.431-7.08a.668.668 0 0 0-.92 0l-.008.008a.613.613 0 0 0 0 .89l6.997 6.667-6.997 6.664a.613.613 0 0 0 0 .89l.008.008a.668.668 0 0 0 .92 0l7.431-7.08a.675.675 0 0 0 .207-.483.662.662 0 0 0-.207-.483z" style="fill:var(--color1, #0e0e0e)"/>
    </symbol>
  </defs>
</svg>
