<svg width="30" height="30" viewBox="0 0 30 30" fill="none" xmlns="http://www.w3.org/2000/svg">
<path d="M26.1067 3.60299C25.377 2.9323 22.4282 0.799965 15.8601 0.770995C15.8601 0.770995 8.11461 0.305726 4.3388 3.75574C2.23696 5.84989 1.49757 8.91409 1.41958 12.7131C1.34159 16.512 1.24068 23.6315 8.13003 25.562H8.13664L8.13224 28.5076C8.13224 28.5076 8.08817 29.7002 8.87647 29.9434C9.83001 30.2384 10.3896 29.332 11.3 28.3549C11.7997 27.8185 12.4897 27.0306 13.0096 26.4284C17.7214 26.8234 21.3452 25.9206 21.7567 25.7871C22.708 25.4799 28.0913 24.7929 28.9668 17.6739C29.8706 10.3362 28.5297 5.69495 26.1067 3.60299Z" fill="white"/>
<path d="M24.5745 5.08537C23.9577 4.52704 21.2949 2.86041 15.7389 2.83627C15.7389 2.83627 9.15977 2.40568 5.96604 5.28728C4.18851 7.03555 3.58968 9.63535 3.52403 12.808C3.45837 15.9806 3.1182 22.0414 8.94386 23.6536C8.94386 23.6536 8.92094 28.1531 8.9183 28.5486C8.9183 28.8251 8.96236 29.0143 9.12099 29.0533C9.23512 29.081 9.40608 29.0222 9.55149 28.8778C10.483 27.9459 13.4652 24.362 13.4652 24.362C17.4666 24.6223 20.6502 23.8353 20.9926 23.7238C21.7999 23.4653 26.1661 23.0917 26.9051 17.1459C27.6687 11.0171 26.6244 6.83364 24.5745 5.08537Z" fill="#7360F2"/>
<path fill-rule="evenodd" clip-rule="evenodd" d="M15.973 10.2414C15.9837 10.0373 16.1585 9.88049 16.3634 9.89114C17.1298 9.93097 17.7676 10.1621 18.2218 10.6299C18.6742 11.0959 18.896 11.7469 18.9349 12.5287C18.9451 12.7328 18.7872 12.9065 18.5823 12.9166C18.3774 12.9268 18.2031 12.7695 18.1929 12.5654C18.1596 11.8961 17.9753 11.4405 17.6877 11.1444C17.402 10.85 16.9658 10.6635 16.3246 10.6302C16.1198 10.6195 15.9624 10.4455 15.973 10.2414Z" fill="white"/>
<path fill-rule="evenodd" clip-rule="evenodd" d="M15.4099 8.24781C15.4249 8.044 15.6029 7.89087 15.8075 7.90579C17.3674 8.01951 18.623 8.55044 19.5375 9.5449L19.5377 9.54504C20.4423 10.5297 20.8722 11.7546 20.841 13.1914C20.8366 13.3957 20.6667 13.5578 20.4616 13.5533C20.2565 13.5489 20.0939 13.3797 20.0983 13.1754C20.1258 11.9084 19.7518 10.8742 18.9896 10.0447C18.2298 9.21851 17.1676 8.74696 15.7533 8.64386C15.5487 8.62894 15.395 8.45163 15.4099 8.24781Z" fill="white"/>
<path fill-rule="evenodd" clip-rule="evenodd" d="M14.7542 6.35231C14.7556 6.14796 14.923 5.98345 15.1282 5.98487C17.2839 5.99983 19.106 6.7147 20.569 8.13536C22.0442 9.56789 22.7737 11.5182 22.7922 13.9403C22.7938 14.1447 22.6288 14.3116 22.4236 14.3132C22.2185 14.3147 22.0509 14.1503 22.0493 13.946C22.032 11.6763 21.3541 9.9313 20.0504 8.66527C18.7344 7.38736 17.1005 6.73862 15.123 6.7249C14.9179 6.72347 14.7527 6.55666 14.7542 6.35231Z" fill="white"/>
<path d="M16.4175 17.5036C16.4175 17.5036 16.9397 17.5475 17.2208 17.2025L17.769 16.5155C18.0333 16.1749 18.6714 15.9576 19.2962 16.3044C19.7644 16.5704 20.219 16.8596 20.6582 17.1708C21.0729 17.4746 21.922 18.1804 21.9246 18.1804C22.3291 18.5206 22.4225 19.0201 22.1471 19.5468C22.1471 19.5499 22.1449 19.5551 22.1449 19.5578C21.8416 20.0816 21.4565 20.5539 21.0041 20.9571C20.9988 20.9597 20.9988 20.9624 20.994 20.965C20.6009 21.2921 20.2148 21.4781 19.8355 21.5229C19.7797 21.5326 19.723 21.5361 19.6663 21.5334C19.4991 21.535 19.3327 21.5095 19.1737 21.4579L19.1614 21.4399C18.5771 21.2758 17.6015 20.8649 15.9769 19.9721C15.0368 19.4616 14.1417 18.8726 13.3014 18.2116C12.8801 17.8804 12.4784 17.5255 12.098 17.1485L12.0574 17.1081L12.0169 17.0677L11.9764 17.0273C11.9627 17.0141 11.9495 17.0005 11.9358 16.9869C11.5574 16.608 11.201 16.2078 10.8686 15.7882C10.2051 14.9512 9.61385 14.0598 9.10121 13.1234C8.20495 11.5047 7.79252 10.5337 7.62772 9.95083L7.60965 9.93854C7.558 9.78012 7.53255 9.61438 7.5343 9.44781C7.53122 9.39143 7.53462 9.33488 7.54444 9.27926C7.59173 8.90207 7.77871 8.51713 8.10537 8.12443C8.10801 8.1196 8.11066 8.1196 8.1133 8.11433C8.51794 7.66369 8.99214 7.28022 9.51805 6.97838C9.52069 6.97838 9.52598 6.97574 9.52907 6.97574C10.0578 6.70141 10.5593 6.79446 10.9003 7.19521C10.903 7.19784 11.6102 8.04367 11.9138 8.4567C12.2263 8.89464 12.5166 9.3479 12.7836 9.81476C13.1317 10.4367 12.9136 11.0736 12.5717 11.3361L11.8821 11.8821C11.534 12.1622 11.5798 12.6823 11.5798 12.6823C11.5798 12.6823 12.6012 16.5331 16.4175 17.5036Z" fill="white"/>
</svg>
