<svg width="30" height="30" viewBox="0 0 30 30" fill="none" xmlns="http://www.w3.org/2000/svg">
<g clip-path="url(#clip0_53_968)">
<path fill-rule="evenodd" clip-rule="evenodd" d="M15.6493 2.53223C8.69116 2.53223 3.03284 8.17191 3.03284 15.1063C3.03284 17.8562 3.92479 20.4049 5.43576 22.4785L3.86029 27.1473L8.70764 25.6002C10.6992 26.9127 13.0855 27.679 15.6493 27.679C22.6045 27.679 28.2644 22.0388 28.2644 15.1063C28.2644 8.17191 22.6045 2.53223 15.6493 2.53223Z" fill="url(#paint0_linear_53_968)"/>
<path fill-rule="evenodd" clip-rule="evenodd" d="M29.8715 14.9988C29.8715 22.8667 23.4713 29.2464 15.5761 29.2464C13.0688 29.2464 10.7132 28.6033 8.66537 27.4736L0.75 30L3.33013 22.356C2.02811 20.2085 1.2795 17.6902 1.2795 14.9988C1.2795 7.12934 7.67972 0.75 15.5761 0.75C23.4712 0.75 29.8715 7.12934 29.8715 14.9988ZM15.5761 3.01936C8.94695 3.01936 3.55617 8.39246 3.55617 14.9989C3.55617 17.6189 4.40591 20.047 5.84546 22.0226L4.34446 26.4706L8.96262 24.9967C10.8599 26.2471 13.1335 26.9772 15.576 26.9772C22.2023 26.9772 27.5946 21.6037 27.5946 14.9989C27.5947 8.39235 22.2024 3.01936 15.5761 3.01936ZM22.795 18.2806C22.7064 18.1348 22.4726 18.0474 22.1236 17.8727C21.7729 17.6984 20.0491 16.8525 19.7283 16.7368C19.4076 16.6206 19.1722 16.562 18.94 16.9111C18.7062 17.2604 18.0344 18.0474 17.8293 18.2806C17.6255 18.5141 17.4216 18.5425 17.071 18.3679C16.7199 18.1936 15.5902 17.8235 14.2523 16.6353C13.2112 15.7083 12.5078 14.5658 12.3024 14.2165C12.0989 13.8675 12.2821 13.6786 12.4557 13.5043C12.6138 13.347 12.8067 13.0964 12.9819 12.8933C13.1575 12.6885 13.2157 12.5423 13.3326 12.3091C13.4494 12.0759 13.3912 11.8728 13.3026 11.6981C13.2157 11.5238 12.5144 9.80496 12.2219 9.10504C11.9315 8.40707 11.6391 8.43312 11.4336 8.43312C11.2297 8.43312 10.8515 8.49402 10.8515 8.49402C10.8515 8.49402 10.149 8.58138 9.82832 8.93073C9.50757 9.27966 8.6024 10.1255 8.6024 11.8427C8.6024 13.5611 9.85701 15.2227 10.0322 15.4542C10.2077 15.6878 12.4558 19.3295 16.0187 20.7278C19.5816 22.1257 19.5816 21.6594 20.2243 21.6004C20.8658 21.5436 22.2972 20.7562 22.5896 19.9404C22.882 19.1248 22.882 18.4251 22.795 18.2806Z" fill="white"/>
</g>
<defs>
<linearGradient id="paint0_linear_53_968" x1="15.6487" y1="2.53223" x2="15.6487" y2="27.679" gradientUnits="userSpaceOnUse">
<stop stop-color="#4AC14B"/>
<stop offset="1" stop-color="#06853A"/>
</linearGradient>
<clipPath id="clip0_53_968">
<rect width="30" height="30" fill="white"/>
</clipPath>
</defs>
</svg>
