<svg width="30" height="30" viewBox="0 0 30 30" fill="none" xmlns="http://www.w3.org/2000/svg">
<path d="M15 3.04688C12.6359 3.04687 10.3249 3.74791 8.3592 5.06134C6.39352 6.37477 4.86146 8.24159 3.95676 10.4257C3.05205 12.6099 2.81534 15.0133 3.27656 17.3319C3.73777 19.6506 4.87619 21.7805 6.54787 23.4521C8.21954 25.1238 10.3494 26.2622 12.6681 26.7234C14.9867 27.1847 17.3901 26.948 19.5743 26.0432C21.7584 25.1385 23.6252 23.6065 24.9387 21.6408C26.2521 19.6751 26.9531 17.3641 26.9531 15C26.9494 11.831 25.6889 8.79281 23.448 6.55198C21.2072 4.31114 18.169 3.0506 15 3.04688ZM15 25.5469C12.914 25.5469 10.8749 24.9283 9.14048 23.7694C7.40605 22.6105 6.05423 20.9633 5.25596 19.0361C4.4577 17.1089 4.24883 14.9883 4.65579 12.9424C5.06274 10.8965 6.06723 9.01724 7.54224 7.54223C9.01725 6.06723 10.8965 5.06273 12.9424 4.65578C14.9883 4.24883 17.1089 4.45769 19.0361 5.25596C20.9633 6.05423 22.6105 7.40605 23.7694 9.14047C24.9283 10.8749 25.5469 12.914 25.5469 15C25.5438 17.7963 24.4316 20.4771 22.4543 22.4543C20.4771 24.4316 17.7963 25.5438 15 25.5469Z" fill="#697B61"/>
<path d="M10.9355 21V19.578C11.5475 19.17 12.2135 18.714 12.9335 18.21C13.6655 17.706 14.3675 17.166 15.0395 16.59C15.4235 16.254 15.7835 15.906 16.1195 15.546C16.4675 15.174 16.7675 14.802 17.0195 14.43C17.2715 14.046 17.4695 13.662 17.6135 13.278C17.7695 12.882 17.8475 12.486 17.8475 12.09C17.8475 11.718 17.7875 11.382 17.6675 11.082C17.5475 10.782 17.3735 10.524 17.1455 10.308C16.9175 10.092 16.6475 9.924 16.3355 9.804C16.0235 9.684 15.6755 9.624 15.2915 9.624C14.9075 9.624 14.5475 9.69 14.2115 9.822C13.8755 9.942 13.5695 10.122 13.2935 10.362C13.0295 10.602 12.8015 10.902 12.6095 11.262C12.4175 11.61 12.2735 12.018 12.1775 12.486L10.8635 12.072C10.9595 11.46 11.1395 10.914 11.4035 10.434C11.6675 9.954 11.9915 9.552 12.3755 9.228C12.7715 8.904 13.2215 8.658 13.7255 8.49C14.2415 8.31 14.7935 8.22 15.3815 8.22C15.9695 8.22 16.5035 8.31 16.9835 8.49C17.4755 8.67 17.8955 8.928 18.2435 9.264C18.6035 9.588 18.8795 9.978 19.0715 10.434C19.2635 10.89 19.3595 11.394 19.3595 11.946C19.3595 12.45 19.2635 12.954 19.0715 13.458C18.8915 13.95 18.6395 14.436 18.3155 14.916C17.9915 15.384 17.6195 15.846 17.1995 16.302C16.7795 16.746 16.3355 17.172 15.8675 17.58C15.6395 17.772 15.4115 17.964 15.1835 18.156C14.9555 18.348 14.7275 18.528 14.4995 18.696C14.2715 18.864 14.0435 19.026 13.8155 19.182C13.5875 19.338 13.3655 19.488 13.1495 19.632H19.7375V21H10.9355Z" fill="#697B61"/>
</svg>
