<svg width="12" height="14" viewBox="0 0 12 14" fill="none" xmlns="http://www.w3.org/2000/svg">
<path opacity="0.2" d="M11.5 2.50018V5.00018H0.5V2.50018C0.5 2.36757 0.552679 2.2404 0.646447 2.14663C0.740215 2.05286 0.867392 2.00018 1 2.00018H11C11.1326 2.00018 11.2598 2.05286 11.3536 2.14663C11.4473 2.2404 11.5 2.36757 11.5 2.50018Z" fill="#0E0E0E"/>
<path d="M11 1.5H9.5V1C9.5 0.867392 9.44732 0.740215 9.35355 0.646447C9.25979 0.552678 9.13261 0.5 9 0.5C8.86739 0.5 8.74021 0.552678 8.64645 0.646447C8.55268 0.740215 8.5 0.867392 8.5 1V1.5H3.5V1C3.5 0.867392 3.44732 0.740215 3.35355 0.646447C3.25979 0.552678 3.13261 0.5 3 0.5C2.86739 0.5 2.74021 0.552678 2.64645 0.646447C2.55268 0.740215 2.5 0.867392 2.5 1V1.5H1C0.734784 1.5 0.48043 1.60536 0.292893 1.79289C0.105357 1.98043 0 2.23478 0 2.5V12.5C0 12.7652 0.105357 13.0196 0.292893 13.2071C0.48043 13.3946 0.734784 13.5 1 13.5H11C11.2652 13.5 11.5196 13.3946 11.7071 13.2071C11.8946 13.0196 12 12.7652 12 12.5V2.5C12 2.23478 11.8946 1.98043 11.7071 1.79289C11.5196 1.60536 11.2652 1.5 11 1.5ZM2.5 2.5V3C2.5 3.13261 2.55268 3.25979 2.64645 3.35355C2.74021 3.44732 2.86739 3.5 3 3.5C3.13261 3.5 3.25979 3.44732 3.35355 3.35355C3.44732 3.25979 3.5 3.13261 3.5 3V2.5H8.5V3C8.5 3.13261 8.55268 3.25979 8.64645 3.35355C8.74021 3.44732 8.86739 3.5 9 3.5C9.13261 3.5 9.25979 3.44732 9.35355 3.35355C9.44732 3.25979 9.5 3.13261 9.5 3V2.5H11V4.5H1V2.5H2.5ZM11 12.5H1V5.5H11V12.5ZM5 7V11C5 11.1326 4.94732 11.2598 4.85355 11.3536C4.75979 11.4473 4.63261 11.5 4.5 11.5C4.36739 11.5 4.24021 11.4473 4.14645 11.3536C4.05268 11.2598 4 11.1326 4 11V7.80875L3.72375 7.9475C3.60507 8.00684 3.46767 8.01661 3.34178 7.97465C3.2159 7.93268 3.11184 7.84243 3.0525 7.72375C2.99316 7.60507 2.98339 7.46767 3.02535 7.34178C3.06732 7.2159 3.15757 7.11184 3.27625 7.0525L4.27625 6.5525C4.35251 6.51434 4.43726 6.49632 4.52244 6.50015C4.60763 6.50397 4.69042 6.52952 4.76295 6.57437C4.83548 6.61921 4.89533 6.68186 4.93682 6.75636C4.97831 6.83086 5.00006 6.91473 5 7ZM8.6975 8.90312L7.5 10.5H8.5C8.63261 10.5 8.75979 10.5527 8.85355 10.6464C8.94732 10.7402 9 10.8674 9 11C9 11.1326 8.94732 11.2598 8.85355 11.3536C8.75979 11.4473 8.63261 11.5 8.5 11.5H6.5C6.40714 11.5 6.31612 11.4741 6.23713 11.4253C6.15815 11.3765 6.09431 11.3067 6.05279 11.2236C6.01126 11.1406 5.99368 11.0476 6.00202 10.9551C6.01036 10.8626 6.04429 10.7743 6.1 10.7L7.89875 8.30188C7.93966 8.24741 7.96902 8.18515 7.98501 8.11893C8.00099 8.05271 8.00328 7.98392 7.99173 7.91679C7.98018 7.84965 7.95503 7.78558 7.91783 7.72852C7.88062 7.67145 7.83215 7.62259 7.77538 7.58493C7.71862 7.54727 7.65475 7.52161 7.58771 7.50952C7.52067 7.49743 7.45187 7.49916 7.38552 7.51462C7.31917 7.53008 7.25669 7.55893 7.20189 7.59941C7.1471 7.63988 7.10115 7.69113 7.06688 7.75C7.03501 7.80868 6.99172 7.86038 6.93955 7.90205C6.88739 7.94373 6.8274 7.97453 6.76314 7.99265C6.69887 8.01076 6.63163 8.01582 6.56538 8.00753C6.49913 7.99924 6.43521 7.97776 6.37739 7.94436C6.31957 7.91097 6.26903 7.86633 6.22874 7.81308C6.18846 7.75984 6.15925 7.69906 6.14283 7.63434C6.12641 7.56962 6.12312 7.50227 6.13316 7.43626C6.14319 7.37025 6.16634 7.30692 6.20125 7.25C6.36641 6.96418 6.62125 6.74083 6.92626 6.61456C7.23127 6.4883 7.56941 6.46617 7.88827 6.55162C8.20712 6.63707 8.48889 6.82531 8.68989 7.08717C8.89089 7.34904 8.99989 7.66989 9 8C9.00106 8.32609 8.89476 8.64346 8.6975 8.90312Z" fill="#0E0E0E"/>
</svg>
