<svg width="30" height="31" viewBox="0 0 30 31" fill="none" xmlns="http://www.w3.org/2000/svg">
<path d="M15 3.54688C12.6359 3.54687 10.3249 4.24791 8.3592 5.56134C6.39352 6.87477 4.86146 8.74159 3.95676 10.9257C3.05205 13.1099 2.81534 15.5133 3.27656 17.8319C3.73777 20.1506 4.87619 22.2805 6.54787 23.9521C8.21954 25.6238 10.3494 26.7622 12.6681 27.2234C14.9867 27.6847 17.3901 27.448 19.5743 26.5432C21.7584 25.6385 23.6252 24.1065 24.9387 22.1408C26.2521 20.1751 26.9531 17.8641 26.9531 15.5C26.9494 12.331 25.6889 9.29281 23.448 7.05198C21.2072 4.81114 18.169 3.5506 15 3.54688ZM15 26.0469C12.914 26.0469 10.8749 25.4283 9.14048 24.2694C7.40605 23.1105 6.05423 21.4633 5.25596 19.5361C4.4577 17.6089 4.24883 15.4883 4.65579 13.4424C5.06274 11.3965 6.06723 9.51724 7.54224 8.04223C9.01725 6.56723 10.8965 5.56273 12.9424 5.15578C14.9883 4.74883 17.1089 4.95769 19.0361 5.75596C20.9633 6.55423 22.6105 7.90605 23.7694 9.64047C24.9283 11.3749 25.5469 13.414 25.5469 15.5C25.5438 18.2963 24.4316 20.9771 22.4543 22.9543C20.4771 24.9316 17.7963 26.0438 15 26.0469Z" fill="#697B61"/>
<path d="M14.4663 21.644C13.9143 21.644 13.3923 21.578 12.9003 21.446C12.4083 21.314 11.9643 21.122 11.5683 20.87C11.1843 20.618 10.8543 20.312 10.5783 19.952C10.3023 19.592 10.0983 19.184 9.96631 18.728L11.3343 18.332C11.4663 18.656 11.6343 18.938 11.8383 19.178C12.0423 19.418 12.2763 19.616 12.5403 19.772C12.8163 19.928 13.1223 20.048 13.4583 20.132C13.7943 20.204 14.1483 20.24 14.5203 20.24C15.0603 20.24 15.5283 20.174 15.9243 20.042C16.3203 19.898 16.6503 19.7 16.9143 19.448C17.1783 19.196 17.3763 18.896 17.5083 18.548C17.6403 18.188 17.7063 17.792 17.7063 17.36C17.7063 16.928 17.6403 16.55 17.5083 16.226C17.3883 15.89 17.2083 15.608 16.9683 15.38C16.7283 15.152 16.4343 14.978 16.0863 14.858C15.7383 14.738 15.3423 14.678 14.8983 14.678C14.2863 14.678 13.7163 14.792 13.1883 15.02C12.6723 15.236 12.2163 15.542 11.8203 15.938L10.4703 15.578L11.1543 8.90002H18.3903V10.268H12.3963L11.9643 14.318C12.4083 13.994 12.8823 13.748 13.3863 13.58C13.8903 13.4 14.4483 13.31 15.0603 13.31C15.6963 13.31 16.2663 13.406 16.7703 13.598C17.2863 13.778 17.7243 14.042 18.0843 14.39C18.4443 14.726 18.7203 15.14 18.9123 15.632C19.1163 16.112 19.2183 16.658 19.2183 17.27C19.2183 17.918 19.1043 18.512 18.8763 19.052C18.6603 19.58 18.3423 20.042 17.9223 20.438C17.5143 20.822 17.0163 21.122 16.4283 21.338C15.8403 21.542 15.1863 21.644 14.4663 21.644Z" fill="#697B61"/>
</svg>
