<svg width="13" height="14" viewBox="0 0 13 14" fill="none" xmlns="http://www.w3.org/2000/svg">
<path d="M6.5 0.5C5.21442 0.5 3.95772 0.881218 2.8888 1.59545C1.81988 2.30968 0.986755 3.32484 0.494786 4.51256C0.00281635 5.70028 -0.125905 7.00721 0.124899 8.26809C0.375702 9.52896 0.994767 10.6872 1.90381 11.5962C2.81285 12.5052 3.97104 13.1243 5.23191 13.3751C6.49279 13.6259 7.79972 13.4972 8.98744 13.0052C10.1752 12.5132 11.1903 11.6801 11.9046 10.6112C12.6188 9.54228 13 8.28558 13 7C12.9982 5.27665 12.3128 3.62441 11.0942 2.40582C9.87559 1.18722 8.22335 0.50182 6.5 0.5ZM6.5 12.5C5.4122 12.5 4.34884 12.1774 3.44437 11.5731C2.5399 10.9687 1.83495 10.1098 1.41867 9.10476C1.00238 8.09976 0.893465 6.9939 1.10568 5.927C1.3179 4.86011 1.84173 3.8801 2.61091 3.11091C3.3801 2.34172 4.36011 1.8179 5.427 1.60568C6.4939 1.39346 7.59977 1.50238 8.60476 1.91866C9.60975 2.33494 10.4687 3.03989 11.0731 3.94436C11.6774 4.84883 12 5.9122 12 7C11.9983 8.45818 11.4184 9.85617 10.3873 10.8873C9.35617 11.9183 7.95818 12.4983 6.5 12.5ZM10.5 7C10.5 7.13261 10.4473 7.25978 10.3536 7.35355C10.2598 7.44732 10.1326 7.5 10 7.5H6.5C6.36739 7.5 6.24022 7.44732 6.14645 7.35355C6.05268 7.25978 6 7.13261 6 7V3.5C6 3.36739 6.05268 3.24021 6.14645 3.14645C6.24022 3.05268 6.36739 3 6.5 3C6.63261 3 6.75979 3.05268 6.85356 3.14645C6.94732 3.24021 7 3.36739 7 3.5V6.5H10C10.1326 6.5 10.2598 6.55268 10.3536 6.64645C10.4473 6.74021 10.5 6.86739 10.5 7Z" fill="#0E0E0E"/>
</svg>
