<svg width="30" height="30" viewBox="0 0 30 30" fill="none" xmlns="http://www.w3.org/2000/svg">
<path d="M15 3.04688C12.6359 3.04687 10.3249 3.74791 8.3592 5.06134C6.39352 6.37477 4.86146 8.24159 3.95676 10.4257C3.05205 12.6099 2.81534 15.0133 3.27656 17.3319C3.73777 19.6506 4.87619 21.7805 6.54787 23.4521C8.21954 25.1238 10.3494 26.2622 12.6681 26.7234C14.9867 27.1847 17.3901 26.948 19.5743 26.0432C21.7584 25.1385 23.6252 23.6065 24.9387 21.6408C26.2521 19.6751 26.9531 17.3641 26.9531 15C26.9494 11.831 25.6889 8.79281 23.448 6.55198C21.2072 4.31114 18.169 3.0506 15 3.04688ZM15 25.5469C12.914 25.5469 10.8749 24.9283 9.14048 23.7694C7.40605 22.6105 6.05423 20.9633 5.25596 19.0361C4.4577 17.1089 4.24883 14.9883 4.65579 12.9424C5.06274 10.8965 6.06723 9.01724 7.54224 7.54223C9.01725 6.06723 10.8965 5.06273 12.9424 4.65578C14.9883 4.24883 17.1089 4.45769 19.0361 5.25596C20.9633 6.05423 22.6105 7.40605 23.7694 9.14047C24.9283 10.8749 25.5469 12.914 25.5469 15C25.5438 17.7963 24.4316 20.4771 22.4543 22.4543C20.4771 24.4316 17.7963 25.5438 15 25.5469Z" fill="#697B61"/>
<path d="M15.0878 21.144C14.5238 21.144 13.9898 21.078 13.4858 20.946C12.9938 20.814 12.5498 20.622 12.1538 20.37C11.7578 20.118 11.4218 19.812 11.1458 19.452C10.8698 19.092 10.6658 18.684 10.5338 18.228L11.9018 17.832C12.1538 18.492 12.5438 18.978 13.0718 19.29C13.5998 19.59 14.2898 19.74 15.1418 19.74C15.6218 19.74 16.0538 19.668 16.4378 19.524C16.8218 19.38 17.1458 19.182 17.4098 18.93C17.6858 18.666 17.8958 18.354 18.0398 17.994C18.1838 17.634 18.2558 17.232 18.2558 16.788C18.2558 15.96 18.0098 15.33 17.5178 14.898C17.0378 14.454 16.3358 14.232 15.4118 14.232C15.0998 14.232 14.7938 14.262 14.4938 14.322C14.1938 14.382 13.9058 14.496 13.6298 14.664L13.0358 13.566L17.1578 9.768H11.1458V8.4H19.1378V9.714L15.4298 12.99C15.5018 12.978 15.5738 12.972 15.6458 12.972C15.7298 12.972 15.8078 12.972 15.8798 12.972C16.4078 12.972 16.9058 13.062 17.3738 13.242C17.8538 13.422 18.2678 13.68 18.6158 14.016C18.9758 14.34 19.2578 14.736 19.4618 15.204C19.6778 15.672 19.7858 16.2 19.7858 16.788C19.7858 17.436 19.6778 18.03 19.4618 18.57C19.2458 19.098 18.9338 19.554 18.5258 19.938C18.1178 20.322 17.6198 20.622 17.0318 20.838C16.4558 21.042 15.8078 21.144 15.0878 21.144Z" fill="#697B61"/>
</svg>
