<svg width="50" height="50" viewBox="0 0 50 50" fill="none" xmlns="http://www.w3.org/2000/svg">
<circle cx="25" cy="25" r="25" transform="rotate(-180 25 25)" fill="white"/>
<path d="M17.197 26.1498L28.8074 37.2123C29.0012 37.397 29.2585 37.5 29.5262 37.5C29.7938 37.5 30.0512 37.397 30.2449 37.2123L30.2574 37.1998C30.3517 37.1103 30.4267 37.0025 30.478 36.8831C30.5293 36.7636 30.5557 36.635 30.5557 36.505C30.5557 36.375 30.5293 36.2464 30.478 36.127C30.4267 36.0075 30.3517 35.8997 30.2574 35.8102L19.3241 25.3936L30.2574 14.9811C30.3517 14.8915 30.4267 14.7838 30.478 14.6643C30.5293 14.5449 30.5557 14.4162 30.5557 14.2863C30.5557 14.1563 30.5293 14.0277 30.478 13.9082C30.4267 13.7888 30.3517 13.681 30.2574 13.5915L30.2449 13.579C30.0512 13.3943 29.7938 13.2913 29.5262 13.2913C29.2586 13.2913 29.0012 13.3943 28.8074 13.579L17.197 24.6415C17.0949 24.7388 17.0136 24.8558 16.9581 24.9854C16.9025 25.115 16.8739 25.2546 16.8739 25.3956C16.8739 25.5367 16.9025 25.6762 16.9581 25.8059C17.0136 25.9355 17.0949 26.0525 17.197 26.1498Z" fill="#0E0E0E"/>
</svg>
