<svg width="50" height="50" viewBox="0 0 50 50" fill="none" xmlns="http://www.w3.org/2000/svg">
<circle cx="25" cy="25" r="25" fill="white"/>
<path d="M32.803 23.8502L21.1926 12.7877C20.9988 12.603 20.7415 12.5 20.4738 12.5C20.2062 12.5 19.9488 12.603 19.7551 12.7877L19.7426 12.8002C19.6483 12.8897 19.5733 12.9975 19.522 13.1169C19.4707 13.2364 19.4443 13.365 19.4443 13.495C19.4443 13.625 19.4707 13.7536 19.522 13.873C19.5733 13.9925 19.6483 14.1003 19.7426 14.1898L30.6759 24.6064L19.7426 35.0189C19.6483 35.1085 19.5733 35.2162 19.522 35.3357C19.4707 35.4551 19.4443 35.5838 19.4443 35.7137C19.4443 35.8437 19.4707 35.9724 19.522 36.0918C19.5733 36.2112 19.6483 36.319 19.7426 36.4085L19.7551 36.421C19.9488 36.6057 20.2062 36.7087 20.4738 36.7087C20.7415 36.7087 20.9988 36.6057 21.1926 36.421L32.803 25.3585C32.9051 25.2612 32.9864 25.1442 33.0419 25.0146C33.0975 24.885 33.1261 24.7454 33.1261 24.6044C33.1261 24.4633 33.0975 24.3238 33.0419 24.1941C32.9864 24.0645 32.9051 23.9475 32.803 23.8502Z" fill="#0E0E0E"/>
</svg>
